<?xml version="1.0" encoding="utf-8"?><!-- Uploaded to: SVG Repo, www.svgrepo.com, Generator: SVG Repo Mixer Tools -->
<svg fill="#000000" width="800px" height="800px" viewBox="0 0 24 24" xmlns="http://www.w3.org/2000/svg" id="rotate-left" class="icon glyph"><path d="M13,3A9,9,0,0,0,4.91,8.08l-1-2.45a1,1,0,0,0-1.86.74l2,5a1,1,0,0,0,.86.62H5l.11,0a1.32,1.32,0,0,0,.26-.05l.15-.06,4.85-1.94a1,1,0,0,0-.74-1.86L6.54,9.31a7,7,0,1,1,1.21,7.32,1,1,0,0,0-1.41-.09A1,1,0,0,0,6.25,18,9,9,0,1,0,13,3Z"></path></svg>